<svg width="23" height="23" viewBox="0 0 23 23" fill="none" xmlns="http://www.w3.org/2000/svg">
<g clip-path="url(#clip0_51_1179)">
<path d="M17.2375 23C16.2045 22.9013 15.1895 22.664 14.22 22.2945C12.0159 21.4457 9.96946 20.2347 8.16543 18.7116C5.59914 16.647 3.44757 14.1156 1.82444 11.2514C0.960755 9.75677 0.35793 8.12631 0.0417414 6.42977C-0.0684476 5.94435 0.0153586 5.43516 0.275347 5.0105C1.29845 3.31999 2.58033 1.7999 4.07439 0.505493C4.17173 0.424947 4.28019 0.355512 4.38309 0.280521C5.0311 -0.18609 5.56785 -0.0444408 6.16858 0.436057C6.2419 0.498169 6.30729 0.569059 6.36326 0.647137C7.45655 2.11311 8.41 3.67809 9.21114 5.32158C9.32079 5.5697 9.4137 5.82487 9.48925 6.08537C9.56043 6.28295 9.57523 6.49639 9.53201 6.70188C9.4888 6.90737 9.38926 7.09683 9.24451 7.24912C8.86628 7.64907 8.45467 8.01292 8.04028 8.37676C7.51742 8.83226 7.50352 8.8267 7.77885 9.46552C8.32717 10.8081 9.14832 12.0226 10.1904 13.0323C11.2325 14.0419 12.473 14.8248 13.8334 15.3315C13.8812 15.3601 13.9342 15.379 13.9893 15.3871C14.0445 15.3952 14.1007 15.3923 14.1547 15.3786C14.2087 15.3649 14.2595 15.3407 14.3041 15.3074C14.3487 15.274 14.3863 15.2322 14.4147 15.1843C14.7345 14.776 15.0849 14.3927 15.4325 14.0066C15.9387 13.4511 16.545 13.2678 17.2486 13.5928C18.0134 13.9511 18.7838 14.3094 19.5069 14.7399C20.4525 15.2954 21.3564 15.9397 22.2714 16.5508C22.6183 16.7893 22.8649 17.1473 22.9639 17.5562C23.0036 17.6778 23.0164 17.8066 23.0015 17.9337C22.9866 18.0607 22.9444 18.183 22.8777 18.2922C22.7294 18.5567 22.5582 18.8076 22.3659 19.0421C21.0585 20.5246 19.518 21.7845 17.8049 22.7722C17.6231 22.8653 17.4332 22.9416 17.2375 23Z" fill="white"/>
</g>
<defs>
<clipPath id="clip0_51_1179">
<rect width="23" height="23" fill="white"/>
</clipPath>
</defs>
</svg>
