<svg width="22" height="31" viewBox="0 0 22 31" fill="none" xmlns="http://www.w3.org/2000/svg">
<g clip-path="url(#clip0_51_1190)">
<path d="M10.7663 31C10.496 30.806 10.2424 30.5891 10.008 30.3515C7.44674 27.3673 5.16674 24.1435 3.19825 20.7229C2.03207 18.7421 1.11371 16.6202 0.464631 14.4066C-0.453223 11.0448 -0.0285018 7.87213 1.88987 4.9786C2.74243 3.68124 3.85132 2.57995 5.14544 1.74534C6.43957 0.91074 7.89036 0.361232 9.40481 0.132063C10.9193 -0.097106 12.4639 -0.000881856 13.9398 0.414563C15.4157 0.830008 16.7901 1.55549 17.9751 2.54453C20.1052 4.2897 21.5045 6.79649 21.8888 9.5559C22.2338 11.7689 21.8204 13.8715 21.0707 15.9275C20.0674 18.6872 18.6307 21.2114 17.0373 23.6513C15.5009 25.9858 13.8224 28.2197 12.0119 30.3398C11.777 30.5768 11.5234 30.7937 11.2537 30.9883L10.7663 31ZM11.0057 16.8755C12.1024 16.8772 13.1749 16.5469 14.0875 15.9264C15.0001 15.3059 15.7117 14.423 16.1321 13.3897C16.5526 12.3563 16.6631 11.2189 16.4495 10.1215C16.236 9.02402 15.7081 8.01589 14.9326 7.22474C14.1571 6.43359 13.1689 5.89498 12.0932 5.67713C11.0175 5.45927 9.90262 5.57197 8.88972 6.00093C7.87683 6.4299 7.01148 7.15585 6.40324 8.08686C5.79501 9.01788 5.47123 10.1121 5.47292 11.2309C5.47818 12.7263 6.06279 14.1589 7.09925 15.2163C8.13571 16.2737 9.53993 16.8701 11.0057 16.8755Z" fill="white"/>
</g>
<defs>
<clipPath id="clip0_51_1190">
<rect width="22" height="31" fill="white"/>
</clipPath>
</defs>
</svg>
