<svg width="24" height="17" viewBox="0 0 24 17" fill="none" xmlns="http://www.w3.org/2000/svg">
<g clip-path="url(#clip0_51_1181)">
<path d="M24 15.1559L23.8054 15.7552L16.5579 8.52014L23.8197 1.2793L24 1.85557V15.1559Z" fill="white"/>
<path d="M22.7582 0.239133C22.412 0.579133 22.0658 0.916248 21.7224 1.26201L12.6724 10.4017C12.226 10.8512 11.7768 10.8541 11.3304 10.4017L1.422 0.391853C1.36764 0.337108 1.31615 0.279478 1.216 0.172867C1.50213 0.109478 1.73387 0.0518455 1.97135 0.00574384C2.07227 -0.00289118 2.17373 -0.00289118 2.27464 0.00574384C8.7601 0.00574384 15.2456 0.00574384 21.731 0.00574384C22.0689 0.0249079 22.4053 0.0653208 22.7382 0.126756L22.7582 0.239133Z" fill="white"/>
<path d="M1.24176 16.7896L8.49499 9.55745C8.51502 9.57762 8.57797 9.63236 8.63805 9.69286L10.3548 11.4217C10.5632 11.6526 10.8171 11.837 11.1005 11.9633C11.3838 12.0895 11.6902 12.1547 12 12.1547C12.3098 12.1547 12.6162 12.0895 12.8995 11.9633C13.1828 11.837 13.4368 11.6526 13.6452 11.4217C14.2747 10.7878 14.907 10.1568 15.5079 9.55457C17.917 11.9576 20.329 14.3607 22.7868 16.8156C22.5007 16.8761 22.2632 16.9337 22.0257 16.9798C21.9306 16.9888 21.8348 16.9888 21.7396 16.9798H2.25465C1.90673 16.9996 1.55921 16.9344 1.24176 16.7896Z" fill="white"/>
<path d="M0.163084 15.7495C0.0861266 15.4754 0.0344123 15.1947 0.00858369 14.9111C-0.00286123 10.6351 -0.00286123 6.35729 0.00858369 2.07751C0.033534 1.79655 0.0852684 1.51866 0.163084 1.24768L7.43062 8.50293L0.163084 15.7495Z" fill="white"/>
</g>
<defs>
<clipPath id="clip0_51_1181">
<rect width="24" height="17" fill="white"/>
</clipPath>
</defs>
</svg>
