<svg width="26" height="21" viewBox="0 0 26 21" fill="none" xmlns="http://www.w3.org/2000/svg">
<g clip-path="url(#clip0_51_1186)">
<path d="M0 9.56148C0.22707 9.16099 0.606794 8.86237 1.05807 8.72942C2.79972 8.07683 4.54337 7.42808 6.28899 6.78316L24.2138 0.135379C24.3559 0.0810928 24.5033 0.040575 24.6536 0.0144446C24.8272 -0.0251906 25.0082 -0.0234358 25.181 0.0195582C25.3537 0.0625522 25.5131 0.145513 25.6455 0.261303C25.7779 0.377093 25.8793 0.522259 25.9411 0.684361C26.0028 0.846463 26.023 1.02066 26 1.192C25.9643 1.73077 25.8797 2.26545 25.7474 2.78988C24.5169 8.39065 23.2825 13.9895 22.0441 19.5864C21.9827 19.8742 21.8828 20.1529 21.7469 20.4156C21.6443 20.6462 21.454 20.8296 21.2154 20.9277C20.9769 21.0258 20.7084 21.0311 20.4659 20.9425C20.191 20.8649 19.931 20.7443 19.6962 20.5855C17.8327 19.2784 15.9781 17.9569 14.1205 16.6411L13.8797 16.4713C13.8054 16.5346 13.7341 16.5922 13.6687 16.6527C12.7216 17.5279 11.7725 18.406 10.8215 19.287C10.6872 19.42 10.526 19.5248 10.3481 19.5946C10.1701 19.6645 9.97912 19.698 9.78715 19.693C9.81093 19.3388 9.8347 18.9905 9.85848 18.6421C9.97142 17.1047 10.0844 15.5672 10.2062 14.0356C10.2212 13.9111 10.2812 13.7959 10.3756 13.7102C13.9739 10.5682 17.5761 7.43191 21.1822 4.3014C21.206 4.27836 21.2417 4.2611 21.2565 4.23518C21.3249 4.11426 21.3873 3.98757 21.4527 3.86665C21.3042 3.81392 21.1471 3.7876 20.989 3.78893C20.8088 3.83179 20.6384 3.90697 20.4867 4.01061C16.0008 6.7227 11.5199 9.43576 7.0439 12.1498C6.9356 12.2145 6.8057 12.2361 6.68131 12.2102C4.77322 11.6344 2.86808 11.0586 0.96296 10.4972C0.571949 10.4108 0.230923 10.1806 0.0119 9.85515L0 9.56148Z" fill="white"/>
</g>
<defs>
<clipPath id="clip0_51_1186">
<rect width="26" height="21" fill="white"/>
</clipPath>
</defs>
</svg>
