<svg width="235" height="58" viewBox="0 0 235 58" fill="none" xmlns="http://www.w3.org/2000/svg">
<path d="M0.64 57V0.999996H13.6V46.44H41.68V57H0.64ZM75.1838 57.96C70.7571 57.96 66.6504 57.24 62.8638 55.8C59.1304 54.36 55.8771 52.3333 53.1037 49.72C50.3838 47.1067 48.2504 44.04 46.7038 40.52C45.2104 37 44.4638 33.16 44.4638 29C44.4638 24.84 45.2104 21 46.7038 17.48C48.2504 13.96 50.4104 10.8933 53.1838 8.28C55.9571 5.66666 59.2104 3.64 62.9438 2.2C66.6771 0.759998 70.7304 0.039999 75.1038 0.039999C79.5304 0.039999 83.5837 0.759998 87.2638 2.2C90.9971 3.64 94.2238 5.66666 96.9438 8.28C99.7171 10.8933 101.877 13.96 103.424 17.48C104.97 20.9467 105.744 24.7867 105.744 29C105.744 33.16 104.97 37.0267 103.424 40.6C101.877 44.12 99.7171 47.1867 96.9438 49.8C94.2238 52.36 90.9971 54.36 87.2638 55.8C83.5837 57.24 79.5571 57.96 75.1838 57.96ZM75.1038 46.92C77.6104 46.92 79.9038 46.4933 81.9838 45.64C84.1171 44.7867 85.9838 43.56 87.5838 41.96C89.1838 40.36 90.4104 38.4667 91.2638 36.28C92.1704 34.0933 92.6238 31.6667 92.6238 29C92.6238 26.3333 92.1704 23.9067 91.2638 21.72C90.4104 19.5333 89.1838 17.64 87.5838 16.04C86.0371 14.44 84.1971 13.2133 82.0638 12.36C79.9304 11.5067 77.6104 11.08 75.1038 11.08C72.5971 11.08 70.2771 11.5067 68.1438 12.36C66.0638 13.2133 64.2238 14.44 62.6238 16.04C61.0238 17.64 59.7704 19.5333 58.8638 21.72C58.0104 23.9067 57.5838 26.3333 57.5838 29C57.5838 31.6133 58.0104 34.04 58.8638 36.28C59.7704 38.4667 60.9971 40.36 62.5438 41.96C64.1438 43.56 66.0104 44.7867 68.1438 45.64C70.2771 46.4933 72.5971 46.92 75.1038 46.92ZM142.524 57.96C138.097 57.96 134.017 57.2667 130.284 55.88C126.604 54.44 123.377 52.4133 120.604 49.8C117.884 47.1867 115.75 44.12 114.204 40.6C112.71 37.08 111.964 33.2133 111.964 29C111.964 24.7867 112.71 20.92 114.204 17.4C115.75 13.88 117.91 10.8133 120.684 8.2C123.457 5.58666 126.71 3.58666 130.444 2.2C134.177 0.759998 138.284 0.039999 142.764 0.039999C147.724 0.039999 152.177 0.866665 156.124 2.52C160.124 4.17333 163.484 6.57333 166.204 9.72L157.884 17.4C155.857 15.2667 153.644 13.6933 151.244 12.68C148.844 11.6133 146.23 11.08 143.404 11.08C140.684 11.08 138.204 11.5067 135.964 12.36C133.724 13.2133 131.777 14.44 130.124 16.04C128.524 17.64 127.27 19.5333 126.364 21.72C125.51 23.9067 125.084 26.3333 125.084 29C125.084 31.6133 125.51 34.0133 126.364 36.2C127.27 38.3867 128.524 40.3067 130.124 41.96C131.777 43.56 133.697 44.7867 135.884 45.64C138.124 46.4933 140.577 46.92 143.244 46.92C145.804 46.92 148.284 46.52 150.684 45.72C153.137 44.8667 155.51 43.4533 157.804 41.48L165.164 50.84C162.124 53.1333 158.577 54.8933 154.524 56.12C150.524 57.3467 146.524 57.96 142.524 57.96ZM153.324 49.16V28.12H165.164V50.84L153.324 49.16ZM204.403 57.96C199.976 57.96 195.869 57.24 192.083 55.8C188.349 54.36 185.096 52.3333 182.322 49.72C179.603 47.1067 177.469 44.04 175.923 40.52C174.429 37 173.683 33.16 173.683 29C173.683 24.84 174.429 21 175.923 17.48C177.469 13.96 179.629 10.8933 182.403 8.28C185.176 5.66666 188.429 3.64 192.163 2.2C195.896 0.759998 199.949 0.039999 204.323 0.039999C208.749 0.039999 212.802 0.759998 216.483 2.2C220.216 3.64 223.443 5.66666 226.163 8.28C228.936 10.8933 231.096 13.96 232.643 17.48C234.189 20.9467 234.963 24.7867 234.963 29C234.963 33.16 234.189 37.0267 232.643 40.6C231.096 44.12 228.936 47.1867 226.163 49.8C223.443 52.36 220.216 54.36 216.483 55.8C212.802 57.24 208.776 57.96 204.403 57.96ZM204.323 46.92C206.829 46.92 209.123 46.4933 211.203 45.64C213.336 44.7867 215.203 43.56 216.803 41.96C218.403 40.36 219.629 38.4667 220.483 36.28C221.389 34.0933 221.843 31.6667 221.843 29C221.843 26.3333 221.389 23.9067 220.483 21.72C219.629 19.5333 218.403 17.64 216.803 16.04C215.256 14.44 213.416 13.2133 211.283 12.36C209.149 11.5067 206.829 11.08 204.323 11.08C201.816 11.08 199.496 11.5067 197.363 12.36C195.283 13.2133 193.443 14.44 191.843 16.04C190.243 17.64 188.989 19.5333 188.083 21.72C187.229 23.9067 186.803 26.3333 186.803 29C186.803 31.6133 187.229 34.04 188.083 36.28C188.989 38.4667 190.216 40.36 191.763 41.96C193.363 43.56 195.229 44.7867 197.363 45.64C199.496 46.4933 201.816 46.92 204.323 46.92Z" fill="white"/>
</svg>
