<?xml version="1.0" encoding="utf-8"?>
<!-- Generator: Adobe Illustrator 26.0.2, SVG Export Plug-In . SVG Version: 6.00 Build 0)  -->
<svg version="1.1" xmlns="http://www.w3.org/2000/svg" xmlns:xlink="http://www.w3.org/1999/xlink" x="0px" y="0px"
	 viewBox="0 0 952.44 595.28" style="enable-background:new 0 0 952.44 595.28;" xml:space="preserve">

<link xmlns="http://www.w3.org/1999/xhtml" rel="stylesheet" href="../css/map_style.css" type="text/css"/>

<!-- inside -->
<g id="showcase">
	<g> 
		<!-- field -->
		<g id="ground" class="field">
			<g>
				<polygon points="796.15,189.78 942.1,279.45 314.94,447.46 33.93,259.16 241.82,202.73 590.62,160.21 				"/>
			</g>
			<g>
				<polygon points="942.1,279.45 942.1,280.07 314.94,448.07 314.94,447.46 				"/>
			</g>
			<g>
				<polygon points="314.94,447.46 314.94,448.07 33.92,259.78 33.93,259.16 				"/>
			</g>
		</g>

		<!-- buildings -->
		<g>
			<!-- building__7/13 -->
			<g class="st0">
				<g id="built_7/13" class="building">
					<g>
						<polygon points="756.81,192.22 756.76,207.7 701.73,219.51 701.77,204.03 						"/>
					</g>
					<g>
						<polygon points="701.77,204.03 701.73,219.51 695.38,209.53 695.42,194.05 						"/>
					</g>
					<g>
						<polygon points="695.42,194.05 695.38,209.53 631.32,223.84 631.36,208.37 						"/>
					</g>
					<g>
						<polygon points="631.36,208.37 631.32,223.84 628.95,218.25 629,202.77 						"/>
					</g>
					<g>
						<polygon points="612.76,170.72 756.81,192.22 701.77,204.03 695.42,194.05 631.36,208.37 629,202.77 
							517.88,223.02 502.34,186.25 						"/>
					</g>
					<g>
						<polygon points="629,202.77 628.95,218.25 517.84,238.5 517.88,223.02 						"/>
					</g>
					<g>
						<polygon points="517.88,223.02 517.84,238.5 502.3,201.73 502.34,186.25 						"/>
					</g>
				</g>

				<!-- building__7/12 -->
				<g id="built_7/12" class="building">
					<g>
						<polygon points="621.66,218.71 621.59,243.47 617.92,237.84 617.99,213.08 						"/>
					</g>
					<g>
						<polygon points="569.2,229.9 569.13,254.66 564.17,247.06 564.24,222.29 						"/>
					</g>
					<g>
						<polygon points="535.48,249.29 535.41,274.06 523.26,255.43 523.33,230.67 						"/>
					</g>
					<g>
						<polygon points="536.69,276.37 536.62,301.13 520.99,277.19 521.06,252.43 						"/>
					</g>
					<g>
						<polygon points="550.21,273.43 550.14,298.2 536.62,301.13 536.69,276.37 						"/>
					</g>
					<g>
						<polygon points="662.89,210.47 693.62,257.57 558.96,286.84 550.21,273.43 536.69,276.37 521.06,252.43 
							535.48,249.29 523.33,230.67 546.01,225.74 551.27,233.79 569.2,229.9 564.24,222.29 605.55,213.31 610.63,221.11 
							621.66,218.71 617.99,213.08 646.98,206.78 651.15,213.18 						"/>
					</g>
					<g>
						<polygon points="558.96,286.84 558.89,311.6 550.14,298.2 550.21,273.43 						"/>
					</g>
					<g>
						<polygon points="693.62,257.57 693.55,282.34 558.89,311.6 558.96,286.84 						"/>
					</g>
				</g>

				<!-- building__7 бокс1 -->
				<g id="built_7b1" class="building">
					<g>
						<polygon points="285.4,216.66 285.34,238.33 281.85,230.07 281.91,208.4 						"/>
					</g>
					<g>
						<polygon points="310.11,213.2 310.05,234.87 285.34,238.33 285.4,216.66 						"/>
					</g>
					<g>
						<polygon points="328.95,224.83 328.89,246.5 315.74,248.34 315.8,226.67 						"/>
					</g>
					<g>
						<polygon points="315.8,226.67 315.74,248.34 310.05,234.87 310.11,213.2 						"/>
					</g>
					<g>
						<polygon points="517.33,221.5 517.27,243.17 461.14,251.03 461.2,229.36 						"/>
					</g>
					<g>
						<polygon points="461.2,229.36 461.14,251.03 457.13,241.56 457.19,219.89 						"/>
					</g>
					<g>
						<polygon points="345.84,231.13 345.78,252.8 338.37,254.31 338.43,232.64 						"/>
					</g>
					<g>
						<polygon points="338.43,232.64 338.37,254.31 328.89,246.5 328.95,224.83 						"/>
					</g>
					<g>
						<polygon points="498.9,177.88 514.44,214.65 517.33,221.5 461.2,229.36 457.19,219.89 347.58,235.25 
							345.84,231.13 338.43,232.64 328.95,224.83 315.8,226.67 310.11,213.2 285.4,216.66 281.91,208.4 						"/>
					</g>
					<g>
						<polygon points="347.58,235.25 347.52,256.91 345.78,252.8 345.84,231.13 						"/>
					</g>
					<g>
						<polygon points="457.19,219.89 457.13,241.56 347.52,256.91 347.58,235.25 						"/>
					</g>
				</g>

				<!-- building__7/11 -->
				<g id="built_7/11" class="building">
					<g>
						<polygon points="481.59,257.09 481.52,281.86 471.86,288.22 471.93,263.46 						"/>
					</g>
					<g>
						<polygon points="520.28,283.32 520.21,308.08 514.83,311.62 514.9,286.86 						"/>
					</g>
					<g>
						<polygon points="514.9,286.86 514.83,311.62 502.62,305.4 502.69,280.64 						"/>
					</g>
					<g>
						<polygon points="502.69,280.64 502.62,305.4 476.36,322.71 476.43,297.94 						"/>
					</g>
					<g>
						<polygon points="386.34,307.83 386.27,332.59 375.78,339.51 375.85,314.75 						"/>
					</g>
					<g>
						<polygon points="375.85,314.75 375.78,339.51 365.25,334.15 365.32,309.38 						"/>
					</g>
					<g>
						<polygon points="439.39,323.34 439.32,348.1 429.47,354.6 429.54,329.84 						"/>
					</g>
					<g>
						<polygon points="429.54,329.84 429.47,354.6 386.27,332.59 386.34,307.83 						"/>
					</g>
					<g>
						<polygon points="452.95,330.25 452.88,355.01 439.32,348.1 439.39,323.34 						"/>
					</g>
					<g>
						<polygon points="490.83,305.28 490.76,330.05 452.88,355.01 452.95,330.25 						"/>
					</g>
					<g>
						<polygon points="519.49,276.41 520.28,283.32 514.9,286.86 502.69,280.64 476.43,297.94 490.83,305.28 
							452.95,330.25 439.39,323.34 429.54,329.84 386.34,307.83 375.85,314.75 365.32,309.38 450.69,252.64 457.82,256.27 
							467.48,249.9 481.59,257.09 471.93,263.46 487.32,271.3 496.98,264.94 						"/>
					</g>
				</g>

				<!-- technical_building__1 -->
				<g id="built_tech1" class="building">
					<g>
						<polygon points="756.94,180.01 791.37,234.02 736.27,245.72 701.83,191.71 						"/>
					</g>
					<g>
						<polygon points="791.37,234.02 791.29,261.88 736.19,273.58 736.27,245.72 						"/>
					</g>
					<g>
						<polygon points="736.27,245.72 736.19,273.58 701.75,219.57 701.83,191.71 						"/>
					</g>
				</g>

				<!-- building__7/19 -->
				<g id="built_7/19" class="building">
					<g>
						<polygon points="524.31,307.21 524.25,325.78 520.4,318.84 520.45,300.27 						"/>
					</g>
					<g>
						<polygon points="537.44,297.13 546.69,313.76 507.92,320.93 502.38,310.96 524.31,307.21 520.45,300.27 						
							"/>
					</g>
					<g>
						<polygon points="546.69,313.76 546.64,332.34 507.86,339.5 507.92,320.93 						"/>
					</g>
					<g>
						<polygon points="507.92,320.93 507.86,339.5 502.32,329.53 502.38,310.96 						"/>
					</g>
				</g>

				<!-- building__7/2 -->
				<g id="built_7/2" class="building">
					<g>
						<polygon points="287.45,226.83 287.39,248.5 272.18,253.45 272.25,231.78 						"/>
					</g>
					<g>
						<polygon points="273.48,232.85 273.42,254.52 225.49,268.65 225.56,246.98 						"/>
					</g>
					<g>
						<polygon points="271.91,213.61 287.45,226.83 272.25,231.78 273.48,232.85 225.56,246.98 227.03,248.29 
							203.59,257.12 183.38,239.93 						"/>
					</g>
					<g>
						<polygon points="227.03,248.29 226.97,269.95 203.53,278.78 203.59,257.12 						"/>
					</g>
					<g>
						<polygon points="203.59,257.12 203.53,278.78 183.31,261.6 183.38,239.93 						"/>
					</g>
					<g>
						<polygon points="193.07,241.99 192.99,269.85 169.52,292.71 169.6,264.86 						"/>
					</g>
					<g>
						<polygon points="183.17,233.68 193.07,241.99 169.6,264.86 227.94,285.02 204.64,307.72 132.7,282.85 						"/>
					</g>
					<g>
						<polygon points="227.94,285.02 227.86,312.88 204.56,335.58 204.64,307.72 						"/>
					</g>
					<g>
						<polygon points="204.64,307.72 204.56,335.58 132.62,310.71 132.7,282.85 						"/>
					</g>
				</g>


				<!-- building__7/1 -->
				<g id="built_7/1" class="building">
					<g>
						<polygon points="266.02,275.64 265.95,300.4 252.5,295.54 252.57,270.77 						"/>
					</g>
					<g>
						<polygon points="335.75,241.42 335.68,266.18 287.83,312.35 287.9,287.59 						"/>
					</g>
					<g>
						<polygon points="281.89,291.14 281.82,315.9 258.1,307.32 258.17,282.56 						"/>
					</g>
					<g>
						<polygon points="335.75,241.42 287.9,287.59 300.32,292.08 285.93,306.06 271.78,300.94 281.89,291.14 
							258.17,282.56 266.02,275.64 252.57,270.77 298.57,227.97 						"/>
					</g>
					<g>
						<polygon points="300.32,292.08 300.25,316.84 285.86,330.82 285.93,306.06 						"/>
					</g>
					<g>
						<polygon points="285.93,306.06 285.86,330.82 271.71,325.7 271.78,300.94 						"/>
					</g>
				</g>

				<!-- building__7 -->
				<a xlink:href="#sections">
					<g class="building built_7">
						<g>
							<polygon points="268.45,287.19 253.04,302.19 214.64,288.92 230.04,273.92 						"/>
						</g>
						<g>
							<polygon points="268.45,287.19 268.31,336.72 252.9,351.72 253.04,302.19 						"/>
						</g>
						<g>
							<polygon points="253.04,302.19 252.9,351.72 214.5,338.45 214.64,288.92 						"/>
						</g>
					</g>
				</a>
				<!-- technical_building__2 -->
				<g id="built_tech2" class="building">
					<g>
						<polygon points="356.71,341.46 333.95,363.62 252.96,335.63 267.26,322.06 282.91,327.47 284.96,325.47 
							297.13,329.68 303.8,323.18 						"/>
					</g>
					<g>
						<polygon points="356.71,341.46 356.66,357.56 333.91,379.72 333.95,363.62 						"/>
					</g>
					<g>
						<polygon points="333.95,363.62 333.91,379.72 252.91,351.73 252.96,335.63 						"/>
					</g>
				</g>

				<!-- building__7/7 -->
				<g id="built_7/7" class="building">
					<g>
						<polygon points="411.17,342.16 382.39,370.2 350.63,359.22 379.41,331.19 						"/>
					</g>
					<g>
						<polygon points="411.17,342.16 411.09,370.02 382.31,398.06 382.39,370.2 						"/>
					</g>
					<g>
						<polygon points="382.39,370.2 382.31,398.06 350.55,387.08 350.63,359.22 						"/>
					</g>
				</g>
			</g>
		</g>

		<!-- numbers -->
		<g>
			<!-- number__7 -->
			<g class="number">
				<polygon points="236.54,284.16 235.61,285.07 224.19,289.74 221.7,288.88 232.71,284.38 227.77,282.68 226.51,283.91 
					224.32,283.16 226.76,280.79 				"/>
			</g>			
			<!-- number__7/7 -->
			<g>
				<g>
					<polygon points="389.48,359.58 388.55,360.48 377.14,365.16 374.63,364.29 385.65,359.8 380.7,358.1 379.43,359.33 
						377.26,358.58 379.7,356.2 					"/>
				</g>
				<g>
					<polygon points="381.27,354.74 365.3,362.48 363.3,361.78 379.25,354.05 					"/>
				</g>
				<g>
					<polygon points="372.43,353.69 371.5,354.59 360.08,359.27 357.59,358.4 368.61,353.91 363.66,352.21 362.39,353.44 
						360.22,352.69 362.66,350.31 					"/>
				</g>
			</g>

			<g>
				<g>
					<g class="st0">
						<g>
							<polygon points="432.69,315.56 423.03,321.9 420.99,320.85 429.15,315.5 426.84,314.32 428.34,313.33 							"/>
						</g>
						<g>
							<polygon points="438.66,318.62 429,324.95 426.96,323.91 435.12,318.56 432.81,317.38 434.31,316.39 							"/>
						</g>
					</g>
					<g>
						<polygon points="430.35,312.07 412.17,317.94 410.41,317.05 428.59,311.17 						"/>
					</g>
				</g>
				<g>
					<polygon points="422,310.08 420.8,310.87 408.07,314.23 405.89,313.12 418.16,309.89 413.85,307.68 412.21,308.75 
						410.32,307.78 413.48,305.71 					"/>
				</g>
			</g>

			<g>
				<g>
					<polygon points="523.05,310.53 525.9,315.89 524.18,316.19 521.78,311.67 519.82,312.01 519.38,311.18 					"/>
				</g>
				<g>
					<polygon points="518.84,310.08 518.31,318.07 516.82,318.33 517.35,310.34 					"/>
				</g>
				<g>
					<polygon points="514.38,312.78 513.28,318.12 511.43,318.44 512.52,313.3 508.88,313.95 509.36,314.86 507.76,315.14 
						506.83,313.39 514.03,312.12 					"/>
				</g>
				<g>
					<path d="M533.64,313.19c-0.16,0.5-0.52,0.91-1.08,1.25c-0.56,0.34-1.29,0.59-2.19,0.75c-0.46,0.08-0.93,0.13-1.38,0.15
						c-0.46,0.02-0.86,0-1.24-0.06l0.24-0.86c0.3,0.05,0.62,0.07,0.94,0.05c0.32-0.01,0.63-0.05,0.96-0.11
						c0.87-0.15,1.48-0.43,1.83-0.83c0.34-0.4,0.36-0.91,0.03-1.52c-0.05,0.06-0.1,0.11-0.16,0.17c-0.2,0.19-0.48,0.35-0.82,0.49
						c-0.33,0.14-0.74,0.25-1.2,0.33c-0.6,0.1-1.17,0.13-1.73,0.08c-0.55-0.05-1.03-0.17-1.45-0.37c-0.06-0.03-0.12-0.06-0.18-0.09
						c-0.32-0.18-0.56-0.42-0.71-0.7c-0.18-0.36-0.2-0.69-0.04-1c0.16-0.31,0.47-0.58,0.91-0.82c0.44-0.23,0.97-0.41,1.59-0.52
						c0.85-0.15,1.62-0.17,2.33-0.07c0.63,0.09,1.2,0.28,1.69,0.56c0.05,0.03,0.11,0.06,0.16,0.1c0.53,0.34,0.94,0.8,1.25,1.37
						C533.71,312.15,533.8,312.71,533.64,313.19z M529.48,312.16c0.37-0.06,0.68-0.16,0.91-0.29c0.25-0.13,0.4-0.28,0.48-0.45
						c0.09-0.17,0.09-0.34-0.01-0.51c-0.08-0.14-0.2-0.27-0.38-0.37c-0.03-0.02-0.06-0.03-0.09-0.05c-0.22-0.11-0.49-0.18-0.82-0.21
						c-0.32-0.03-0.69-0.01-1.1,0.06c-0.36,0.06-0.65,0.15-0.88,0.28c-0.23,0.12-0.39,0.27-0.47,0.43
						c-0.08,0.16-0.07,0.34,0.03,0.52c0.09,0.17,0.22,0.3,0.4,0.41c0.13,0.07,0.28,0.13,0.45,0.18
						C528.43,312.25,528.93,312.26,529.48,312.16"/>
				</g>
			</g>

			<g>
				<g>
					<path d="M168.76,281.79c0.22,0.13,0.42,0.26,0.6,0.4c0.5,0.4,0.78,0.83,0.82,1.26s-0.15,0.87-0.6,1.3
						c-0.23,0.24-0.53,0.45-0.88,0.65c-0.34,0.19-0.8,0.37-1.35,0.52c-0.57,0.15-1.29,0.29-2.19,0.41l-5.26,0.68l5.93,2.05
						l-1.16,1.14l-9.27-3.2l0.93-0.9l7.81-1.02c0.65-0.09,1.17-0.17,1.55-0.28c0.39-0.1,0.69-0.22,0.9-0.34
						c0.22-0.13,0.4-0.26,0.53-0.39c0.34-0.33,0.4-0.66,0.2-0.98c-0.1-0.17-0.29-0.33-0.55-0.48c-0.24-0.14-0.54-0.27-0.91-0.39
						c-0.6-0.22-1.23-0.34-1.84-0.39c-0.63-0.05-1.25-0.01-1.88,0.12l-0.88-1.29c0.88-0.21,1.84-0.28,2.9-0.2
						c1.05,0.07,2.08,0.29,3.12,0.65C167.83,281.33,168.34,281.55,168.76,281.79z"/>
				</g>
				<g>
					<polygon points="164.45,278.3 148.49,286.04 146.48,285.34 162.44,277.61 					"/>
				</g>
				<g>
					<polygon points="155.62,277.24 154.69,278.15 143.28,282.82 140.77,281.96 151.79,277.47 146.84,275.76 145.57,277 
						143.41,276.25 145.84,273.87 					"/>
				</g>
			</g>

			<g>
				<g>
					<polygon points="287.91,270.03 279.95,277.12 277.67,276.25 284.39,270.27 281.79,269.29 283.03,268.19 					"/>
				</g>
				<g>
					<polygon points="284.69,266.77 268.22,274.13 266.26,273.39 282.73,266.03 					"/>
				</g>
				<g>
					<polygon points="275.93,265.51 274.94,266.39 263.22,270.8 260.79,269.88 272.09,265.65 267.28,263.83 265.93,265.03 
						263.8,264.24 266.4,261.91 					"/>
				</g>
			</g>

			<g>
				<g>
					<path d="M381.35,224.87c0.32,0.81,0.07,1.51-0.75,2.09c-0.81,0.58-2.1,1-3.9,1.27l-6.41,0.93l-3.21-8.21l11.11-1.62l0.49,1.25
						l-8.5,1.24l0.8,2.02l4.21-0.62c1.71-0.25,3.09-0.24,4.14,0.05c0.34,0.09,0.64,0.21,0.9,0.35
						C380.77,223.93,381.15,224.35,381.35,224.87z M376.1,227.08c1.01-0.16,1.74-0.37,2.19-0.68c0.44-0.3,0.58-0.67,0.42-1.1
						c-0.11-0.27-0.3-0.48-0.58-0.63c-0.61-0.33-1.62-0.39-3.03-0.18l-3.67,0.54l1.01,2.6L376.1,227.08"/>
				</g>
				<g>
					<polygon points="358.7,222.18 359.1,223.21 356.37,231.2 353.54,231.62 356.2,223.91 350.59,224.73 351.14,226.13 
						348.68,226.49 347.63,223.8 					"/>
				</g>
				<g>
					<path d="M426.14,213.66l-1.35,1.17c-0.64-0.25-1.32-0.4-2.02-0.47c-0.69-0.06-1.42-0.04-2.17,0.06
						c-0.74,0.11-1.39,0.28-1.96,0.51c-0.57,0.24-1.02,0.51-1.37,0.84c-0.35,0.32-0.59,0.68-0.7,1.07c-0.12,0.39-0.09,0.8,0.07,1.22
						c0.16,0.42,0.44,0.78,0.84,1.1c0.19,0.16,0.4,0.3,0.64,0.43c0.23,0.13,0.49,0.24,0.77,0.33c0.56,0.19,1.17,0.31,1.85,0.36
						c0.68,0.05,1.38,0.03,2.12-0.09c0.75-0.11,1.42-0.29,1.99-0.54c0.58-0.25,1.05-0.58,1.44-0.98l2.08,0.68
						c-0.49,0.54-1.16,1-2.04,1.38c-0.87,0.37-1.89,0.65-3.08,0.82c-1.09,0.16-2.14,0.2-3.15,0.13c-1.01-0.08-1.93-0.25-2.77-0.53
						c-0.45-0.15-0.86-0.33-1.24-0.53c-0.32-0.17-0.61-0.37-0.88-0.58c-0.58-0.47-1-1-1.23-1.61c-0.24-0.61-0.27-1.2-0.09-1.77
						c0.18-0.57,0.54-1.1,1.08-1.58s1.24-0.89,2.08-1.23c0.85-0.35,1.82-0.6,2.91-0.76c1.17-0.17,2.28-0.21,3.34-0.12
						C424.35,213.08,425.29,213.31,426.14,213.66z"/>
				</g>
				<g>
					<polygon points="411.48,214.47 408.15,219.16 414.87,222.66 411.87,223.1 406.35,220.25 403.7,220.64 405.05,224.09 
						402.44,224.48 399.23,216.26 401.84,215.89 403.19,219.32 405.93,218.92 408.67,214.89 					"/>
				</g>
				<g>
					<path d="M396.91,224.15c-0.54,0.47-1.25,0.88-2.1,1.23c-0.84,0.35-1.81,0.6-2.92,0.76c-1.11,0.16-2.17,0.2-3.2,0.13
						c-1.02-0.07-1.95-0.25-2.79-0.53c-0.46-0.16-0.89-0.34-1.28-0.55c-0.31-0.17-0.59-0.35-0.85-0.56
						c-0.58-0.46-0.99-0.99-1.24-1.6c-0.23-0.61-0.26-1.2-0.08-1.77c0.19-0.56,0.54-1.09,1.08-1.57c0.54-0.48,1.25-0.9,2.1-1.24
						c0.86-0.35,1.83-0.61,2.94-0.76c1.11-0.16,2.18-0.21,3.19-0.13c1.01,0.08,1.94,0.26,2.78,0.53c0.46,0.15,0.88,0.33,1.26,0.54
						c0.32,0.17,0.6,0.36,0.87,0.57c0.58,0.46,1,0.98,1.24,1.6c0.23,0.61,0.26,1.2,0.08,1.77
						C397.83,223.14,397.45,223.67,396.91,224.15z M393.26,224.3c0.56-0.23,1.01-0.51,1.36-0.84c0.34-0.33,0.58-0.68,0.69-1.07
						c0.12-0.39,0.08-0.79-0.08-1.21c-0.16-0.42-0.43-0.79-0.82-1.1c-0.19-0.15-0.4-0.29-0.64-0.42c-0.23-0.13-0.49-0.24-0.76-0.34
						c-0.56-0.2-1.16-0.32-1.84-0.37c-0.66-0.05-1.35-0.03-2.06,0.08c-0.73,0.11-1.36,0.27-1.92,0.5c-0.54,0.23-0.99,0.51-1.35,0.83
						c-0.35,0.33-0.59,0.69-0.7,1.07c-0.12,0.39-0.09,0.79,0.08,1.21c0.16,0.42,0.43,0.78,0.82,1.09c0.2,0.16,0.41,0.31,0.65,0.44
						c0.23,0.12,0.48,0.23,0.74,0.33c0.56,0.2,1.16,0.32,1.84,0.37c0.66,0.05,1.35,0.03,2.08-0.08
						C392.08,224.7,392.71,224.53,393.26,224.3"/>
				</g>
				<g>
					<polygon points="437.56,210.66 440.78,218.88 438.13,219.27 435.42,212.33 432.4,212.77 431.9,211.49 					"/>
				</g>
			</g>

			<g>
				<g>
					<polygon points="534.21,204.67 533.73,216.74 531.5,217.15 531.99,205.08 					"/>
				</g>
				<g class="st0">
					<g>
						<polygon points="540.58,205.29 545.1,213.35 542.52,213.83 538.71,207.02 535.76,207.57 535.07,206.31 						"/>
					</g>
					<g>
						<polygon points="527.58,208.81 526.12,216.88 523.35,217.39 524.79,209.62 519.33,210.64 520.09,212.01 517.69,212.45 
							516.22,209.82 527.02,207.81 						"/>
					</g>
				</g>
				<g>
					<path d="M552.64,203.05l0.56,1l-2.07,2.95c1.18-0.13,2.18-0.09,3.01,0.13c0.48,0.12,0.88,0.28,1.22,0.48
						c0.45,0.26,0.79,0.59,1.01,0.99c0.25,0.45,0.29,0.9,0.11,1.36c-0.18,0.46-0.62,0.88-1.3,1.27c-0.69,0.39-1.65,0.69-2.9,0.92
						c-0.97,0.18-1.98,0.28-3.01,0.29c-1.02,0.01-1.93-0.07-2.73-0.25l0.46-1.37c0.64,0.14,1.36,0.22,2.15,0.24
						c0.8,0.01,1.59-0.06,2.36-0.2c0.93-0.17,1.59-0.41,1.99-0.73c0.4-0.31,0.48-0.65,0.27-1.03c-0.1-0.2-0.27-0.36-0.49-0.49
						c-0.19-0.11-0.43-0.2-0.71-0.26c-0.59-0.13-1.43-0.09-2.49,0.11l-1.27,0.23l-0.57-1.03l1.93-2.76l-6.31,1.17l-0.7-1.25
						L552.64,203.05z"/>
				</g>
			</g>

			<g>
				<g>
					<polygon points="566.75,271.66 565.91,279.77 563.19,280.36 564.03,272.55 558.64,273.7 559.51,275.06 557.13,275.57 
						555.47,272.96 566.11,270.68 					"/>
				</g>
				<g>
					<path d="M592.1,266.51c0.4,0.23,0.71,0.52,0.93,0.86c0.17,0.26,0.28,0.53,0.32,0.81c0.05,0.28,0,0.6-0.15,0.94
						c-0.15,0.35-0.42,0.77-0.83,1.25l-2.36,2.81l6.47-1.39l0.81,1.25l-10.1,2.17l-0.64-0.99l3.52-4.17
						c0.29-0.34,0.48-0.64,0.59-0.88c0.1-0.23,0.13-0.45,0.09-0.62c-0.03-0.18-0.09-0.34-0.18-0.48c-0.13-0.19-0.29-0.34-0.5-0.46
						c-0.19-0.11-0.42-0.19-0.69-0.25c-0.57-0.1-1.26-0.07-2.1,0.11c-0.66,0.14-1.22,0.34-1.68,0.6c-0.45,0.25-0.79,0.56-0.99,0.93
						l-2.3-0.42c0.27-0.53,0.78-1.01,1.54-1.43c0.75-0.43,1.7-0.76,2.82-1c0.99-0.22,1.92-0.31,2.78-0.28
						c0.86,0.03,1.59,0.17,2.21,0.43C591.81,266.35,591.96,266.43,592.1,266.51z"/>
				</g>
				<g>
					<polygon points="579.5,267.8 584.62,275.76 582.08,276.31 577.75,269.59 574.86,270.21 574.06,268.98 					"/>
				</g>
				<g>
					<polygon points="573.08,267.35 573.51,279.44 571.31,279.91 570.88,267.82 					"/>
				</g>
			</g>

		</g>
	</g>
</g>
</svg>
